<?xml version="1.0" encoding="UTF-8"?>
<svg width="752pt" height="752pt" version="1.1" viewBox="0 0 752 752" xmlns="http://www.w3.org/2000/svg">
 <defs>
  <clipPath id="a">
   <path d="m139.21 139.21h473.58v473.58h-473.58z"/>
  </clipPath>
 </defs>
 <g clip-path="url(#a)">
  <path d="m376.02 139.21c-16.691 0-32.969 1.7578-48.684 5.043 0.003906 1.5156 0.023437 3.4258 0.035156 5.9922 0.03125 5.6523 0.070312 13.668 0.125 23.258 0.10547 19.176 0.23828 44.641 0.34766 70.066 0.10547 25.426 0.19141 50.824 0.17969 69.844-0.003906 9.5078-0.039063 17.418-0.10156 22.957-0.023437 2.3008-0.058593 3.9258-0.089843 5.3555 1.4258-1.1562 3.3047-2.6641 5.8359-4.6602 5.4609-4.3047 13.328-10.43 22.801-17.77 18.941-14.676 44.309-34.203 69.68-53.699s50.738-38.965 69.703-53.508c9.4805-7.2734 17.359-13.312 22.836-17.512 2.1094-1.6172 3.5117-2.6953 4.8633-3.7305-40.473-32.285-91.715-51.637-147.53-51.637zm-51.594 5.7148c-69.941 15.543-128.2 61.965-159.75 124.27 0.16797 0.13281 0.27734 0.22266 0.49219 0.39063 1.2109 0.95703 2.9688 2.3398 5.1875 4.0898 4.4375 3.5 10.734 8.4609 18.262 14.395 15.059 11.875 35.051 27.656 55 43.426 19.949 15.77 39.848 31.535 54.711 43.402 7.4297 5.9336 13.609 10.883 17.906 14.387 1.7812 1.4531 3.0156 2.4961 4.1133 3.418-0.015624-1.8359-0.015624-4.2461 0-7.4727 0.039063-6.9531 0.15625-16.914 0.32422-28.895 0.33594-23.961 0.88281-55.969 1.457-87.957 0.57422-31.988 1.1719-63.965 1.625-87.859 0.22656-11.945 0.42188-21.871 0.55078-28.77 0.058594-2.957 0.09375-5.0586 0.125-6.8242zm201.5 47.781c-1.1328 0.91406-2.3633 1.9141-4.1328 3.3398-4.4023 3.5469-10.641 8.5781-18.105 14.598-14.93 12.039-34.75 28.023-54.566 43.961-19.812 15.938-39.617 31.824-54.496 43.672-7.4375 5.9219-13.648 10.844-18.016 14.25-1.8164 1.4141-3.0938 2.3984-4.2344 3.2617 1.793 0.39453 4.1445 0.92188 7.2812 1.6562 6.7695 1.5859 16.457 3.9141 28.102 6.7461 23.285 5.6602 54.371 13.305 85.434 20.984 31.062 7.6797 62.102 15.383 85.297 21.141 11.598 2.8789 21.234 5.2734 27.934 6.9336 2.7656 0.68359 4.6797 1.1523 6.375 1.5703-0.36328-73.422-34.113-138.92-86.867-182.11zm-362.59 79.129c-15.426 31.438-24.121 66.781-24.121 104.17 0 35.457 7.8438 69.059 21.805 99.25 0.39062-0.089844 0.86328-0.19531 1.5234-0.34766 1.5039-0.34766 3.6797-0.85938 6.4297-1.5 5.5039-1.2852 13.309-3.1133 22.645-5.3008 18.676-4.3711 43.477-10.168 68.246-15.93 24.77-5.7656 49.496-11.488 68.043-15.707 9.2734-2.1094 17.004-3.8438 22.418-5.0195 2.25-0.48828 3.8281-0.81641 5.2305-1.0977-1.4453-1.1328-3.3281-2.625-5.8359-4.6484-5.4102-4.3672-13.137-10.672-22.398-18.273-18.523-15.203-43.211-35.59-67.863-55.984-24.656-20.395-49.285-40.801-67.684-56.051-9.1992-7.625-16.836-13.961-22.152-18.363-2.6562-2.1992-4.7344-3.9141-6.1289-5.0625-0.070313-0.058594-0.089844-0.078125-0.15625-0.13281zm257.09 62.582c0.80859 1.6445 1.8555 3.8086 3.2383 6.7227 2.9805 6.2812 7.1992 15.316 12.246 26.184 10.094 21.734 23.488 50.809 36.852 79.879s26.699 58.137 36.66 79.859c4.9805 10.863 9.1094 19.891 11.988 26.16 1.4102 3.0703 2.4922 5.4414 3.25 7.082 53.316-43.047 87.566-108.73 88.121-182.48-1.4609-0.32812-3.1953-0.71094-5.5781-1.2422-5.5156-1.2305-13.34-2.9688-22.699-5.0547-18.723-4.1641-43.586-9.6953-68.402-15.246-24.816-5.5508-49.582-11.125-68.121-15.371-9.2695-2.1211-16.977-3.918-22.363-5.2109-2.2344-0.53516-3.8008-0.92578-5.1875-1.2773zm-95.492 9.9805c-0.015625 0.035156-0.039062 0.074218-0.042969 0.089843-0.015625 0.058594-0.003906 0.035157-0.011719 0.058594 0.023438-0.050781 0.03125-0.078125 0.058594-0.14453zm110.88 39.211c-0.78125 1.6602-1.8203 3.8242-3.2383 6.7227-3.0547 6.2461-7.4922 15.18-12.84 25.902-10.699 21.441-25.074 50.043-39.473 78.613-14.398 28.574-28.809 57.117-39.586 78.445-5.3867 10.664-9.8672 19.531-12.973 25.691-1.5547 3.0781-2.7734 5.4766-3.5859 7.0938-0.1875 0.375-0.28516 0.55859-0.42578 0.83984 16.844 3.8008 34.34 5.8711 52.336 5.8711 55.25 0 106.02-18.961 146.3-50.66-0.050782-0.10938-0.078126-0.15234-0.13281-0.26953-0.67578-1.3867-1.6523-3.3984-2.8906-5.9375-2.4766-5.0781-6-12.289-10.207-20.906-8.418-17.23-19.59-40.113-30.723-62.973-11.133-22.863-22.211-45.699-30.453-62.84-4.1211-8.5703-7.5312-15.723-9.8828-20.738-0.97266-2.082-1.6406-3.5469-2.2305-4.8516zm-28.883 42.695c-1.7852 0.42187-4.1289 0.94922-7.2734 1.6484-6.7891 1.5078-16.527 3.6133-28.246 6.1172-23.438 5.0039-54.766 11.602-86.082 18.16-31.316 6.5586-62.629 13.082-86.027 17.961-11.699 2.4375-21.414 4.4609-28.168 5.8711-3.3789 0.70312-6.0156 1.2539-7.7852 1.625-0.5 0.10547-0.76953 0.16016-1.1211 0.23438 30.41 63.68 88.434 111.58 158.59 128.34 0.16797-0.35156 0.34766-0.73047 0.61719-1.2891 0.66406-1.3945 1.6211-3.4062 2.8359-5.9609 2.4258-5.1055 5.8711-12.344 9.9844-21.008 8.2266-17.324 19.148-40.332 30.082-63.289 10.938-22.957 21.887-45.867 30.152-62.996 4.1328-8.5664 7.5938-15.684 10.051-20.648 1.0195-2.0586 1.7461-3.4883 2.3984-4.7617z" fill="#fff"/>
 </g>
</svg>
