<?xml version="1.0" encoding="UTF-8"?>
<svg width="752pt" height="752pt" version="1.1" viewBox="0 0 752 752" xmlns="http://www.w3.org/2000/svg">
 <g fill="#12b0fb">
  <path d="m597.79 161.75c-2.1484-5.2031-7.2227-8.6016-12.855-8.6055h-167.14c-7.6953 0-13.93 6.2344-13.93 13.93 0 7.6914 6.2344 13.926 13.93 13.926h133.52l-185.16 185.16c-2.6875 2.5977-4.2188 6.1641-4.25 9.8984-0.03125 3.7383 1.4375 7.3281 4.0781 9.9727 2.6406 2.6406 6.2344 4.1094 9.9727 4.0781 3.7344-0.03125 7.3008-1.5664 9.8945-4.2539l185.16-185.16v133.52c0 7.6914 6.2383 13.93 13.93 13.93s13.93-6.2383 13.93-13.93v-167.14c-0.007812-1.8281-0.375-3.6367-1.0742-5.3242z"/>
  <path d="m529.22 348.14c-7.6914 0-13.93 6.2344-13.93 13.93v179.07c-0.007812 7.918-3.1562 15.512-8.7539 21.109s-13.191 8.7461-21.109 8.7539h-274.57c-7.918-0.007812-15.508-3.1562-21.105-8.7539-5.6016-5.5977-8.75-13.191-8.7578-21.109v-274.56c0.007812-7.918 3.1562-15.512 8.7578-21.109 5.5977-5.6016 13.188-8.75 21.105-8.7539h179.07c7.6914 0 13.93-6.2383 13.93-13.93 0-7.6953-6.2383-13.93-13.93-13.93h-179.07c-15.301 0.015625-29.977 6.1016-40.797 16.922-10.82 10.82-16.906 25.496-16.922 40.801v274.56c0.015625 15.305 6.1016 29.977 16.922 40.801 10.82 10.82 25.496 16.906 40.797 16.922h274.57c15.305-0.015625 29.977-6.1016 40.801-16.922 10.82-10.824 16.906-25.496 16.922-40.801v-179.07c0-3.6953-1.4688-7.2383-4.082-9.8516-2.6094-2.6133-6.1523-4.0781-9.8477-4.0781z"/>
 </g>
</svg>
