<?xml version="1.0" encoding="UTF-8" standalone="no"?>
<!-- Created with Inkscape (http://www.inkscape.org/) -->

<svg
   xmlns:dc="http://purl.org/dc/elements/1.1/"
   xmlns:cc="http://creativecommons.org/ns#"
   xmlns:rdf="http://www.w3.org/1999/02/22-rdf-syntax-ns#"
   xmlns:svg="http://www.w3.org/2000/svg"
   xmlns="http://www.w3.org/2000/svg"
   xmlns:xlink="http://www.w3.org/1999/xlink"
   xmlns:sodipodi="http://sodipodi.sourceforge.net/DTD/sodipodi-0.dtd"
   xmlns:inkscape="http://www.inkscape.org/namespaces/inkscape"
   width="164.75615mm"
   height="280.17548mm"
   viewBox="0 0 583.78163 992.74775"
   id="svg2"
   version="1.1"
   inkscape:version="0.92.3 (2405546, 2018-03-11)"
   sodipodi:docname="black-android-phone-flat-clean.svg">
  <defs
     id="defs4">
    <linearGradient
       inkscape:collect="always"
       id="linearGradient6331">
      <stop
         style="stop-color:#ececec;stop-opacity:1;"
         offset="0"
         id="stop6333" />
      <stop
         style="stop-color:#ececec;stop-opacity:0;"
         offset="1"
         id="stop6335" />
    </linearGradient>
    <filter
       inkscape:collect="always"
       style="color-interpolation-filters:sRGB"
       id="filter6281"
       x="-0.010001849"
       width="1.0200037"
       y="-0.089850523"
       height="1.1797011">
      <feGaussianBlur
         inkscape:collect="always"
         stdDeviation="0.38774777"
         id="feGaussianBlur6283" />
    </filter>
    <linearGradient
       inkscape:collect="always"
       xlink:href="#linearGradient6331"
       id="linearGradient6337"
       x1="-296.98401"
       y1="534.4256"
       x2="-295.93579"
       y2="947.07294"
       gradientUnits="userSpaceOnUse"
       gradientTransform="matrix(1,0,0,0.8980104,0,96.866219)" />
    <filter
       inkscape:collect="always"
       style="color-interpolation-filters:sRGB"
       id="filter6363"
       x="-0.072919145"
       width="1.1458383"
       y="-0.035774533"
       height="1.0715491">
      <feGaussianBlur
         inkscape:collect="always"
         stdDeviation="14.424978"
         id="feGaussianBlur6365" />
    </filter>
  </defs>
  <sodipodi:namedview
     id="base"
     pagecolor="#ffffff"
     bordercolor="#666666"
     borderopacity="1.0"
     inkscape:pageopacity="0.0"
     inkscape:pageshadow="2"
     inkscape:zoom="0.35"
     inkscape:cx="-367.26095"
     inkscape:cy="541.58525"
     inkscape:document-units="px"
     inkscape:current-layer="layer1"
     showgrid="false"
     inkscape:window-width="1920"
     inkscape:window-height="1011"
     inkscape:window-x="1920"
     inkscape:window-y="0"
     inkscape:window-maximized="1"
     fit-margin-top="0"
     fit-margin-left="0"
     fit-margin-right="0"
     fit-margin-bottom="0" />
  <metadata
     id="metadata7">
    <rdf:RDF>
      <cc:Work
         rdf:about="">
        <dc:format>image/svg+xml</dc:format>
        <dc:type
           rdf:resource="http://purl.org/dc/dcmitype/StillImage" />
        <dc:title></dc:title>
      </cc:Work>
    </rdf:RDF>
  </metadata>
  <g
     inkscape:label="Layer 1"
     inkscape:groupmode="layer"
     id="layer1"
     transform="translate(-83.388989,-12.471498)">
    <g
       id="g1614">
      <path
         sodipodi:nodetypes="ccccccccc"
         inkscape:connector-curvature="0"
         id="path6339"
         d="m 199.17026,45.230349 389.4139,1.01015 c 33.6093,8.34375 38.723,28.76718 41.9213,50.00256 l -0.5051,859.134771 c -0.1161,34.6176 -18.1301,50.67437 -45.4569,57.07347 l -384.8681,0.5051 c -34.2724,-9.8853 -43.8543,-32.11587 -43.9416,-59.09387 l 0.5051,-860.649931 c 1.6064,-27.18122 18.8459,-40.59603 42.9314,-47.98225 z"
         style="opacity:0.45;fill:#000000;fill-opacity:1;fill-rule:evenodd;stroke:none;stroke-width:1px;stroke-linecap:butt;stroke-linejoin:miter;stroke-opacity:1;filter:url(#filter6363)"
         transform="matrix(1.0075192,0,0,0.89304907,-2.9559554,2.9958887)" />
      <path
         d="M 325.8256,41.199506 V 1005.2193 H 127.8357 C 103.86591,998.28897 85.273919,984.18823 83.388989,947.81142 L 83.894069,93.222362 C 85.624539,66.668295 97.192689,47.246545 125.8154,40.189354 Z m -0.0514,0 V 1005.2193 h 197.9899 c 23.96979,-6.93033 42.56178,-21.03107 44.44671,-57.40788 L 567.70573,93.222362 C 565.97526,66.668295 554.40711,47.246545 525.7844,40.189354 Z"
         style="fill:none;fill-rule:evenodd;stroke:none;stroke-width:1px;stroke-linecap:butt;stroke-linejoin:miter;stroke-opacity:1"
         id="path4174"
         inkscape:connector-curvature="0" />
      <path
         sodipodi:nodetypes="ccccccccc"
         inkscape:connector-curvature="0"
         id="path4192"
         d="m 193.16044,44.551517 389.41381,0.902151 c 33.60935,7.451655 38.72301,25.691481 41.92133,44.656432 l -0.50508,767.27869 c -0.11612,30.91639 -18.13006,45.25652 -45.45686,50.97146 l -384.86812,0.4511 c -34.27241,-8.82846 -43.85435,-28.68224 -43.94163,-52.77577 l 0.50507,-768.631931 c 1.60646,-24.275083 18.84595,-36.25563 42.93148,-42.852132 z"
         style="fill:#151515;fill-opacity:1;fill-rule:evenodd;stroke:none;stroke-width:0.94503075px;stroke-linecap:butt;stroke-linejoin:miter;stroke-opacity:1" />
      <path
         transform="matrix(1.0039824,0,0,1.1459209,671.84342,-16.338935)"
         style="opacity:1;fill:#000000;stroke:none;stroke-width:0.25;filter:url(#filter6281)"
         d="m -328.07144,77.933632 h 87.32142 c 3.15793,3.241852 3.96558,6.640389 0,10.357142 h -87.32142 c -2.38775,-2.890557 -5.44306,-5.624041 0,-10.357142 z"
         id="path6255"
         inkscape:connector-curvature="0"
         sodipodi:nodetypes="ccccc" />
      <ellipse
         ry="7.9549513"
         rx="8.207489"
         cy="77.836426"
         cx="532.31915"
         id="path4223"
         style="opacity:1;fill:#000000;fill-opacity:1;stroke:none;stroke-width:0.25" />
      <path
         sodipodi:nodetypes="ccccc"
         inkscape:connector-curvature="0"
         id="path1094"
         d="m -328.07144,77.933632 h 87.32142 c 3.15793,3.241852 3.96558,6.640389 0,10.357142 h -87.32142 c -2.38775,-2.890557 -5.44306,-5.624041 0,-10.357142 z"
         style="opacity:1;fill:#000000;stroke:none;stroke-width:0.25;filter:url(#filter6281)"
         transform="matrix(1.0039824,0,0,1.1459209,671.84342,778.7631)" />
    </g>
    <path
       sodipodi:type="inkscape:offset"
       inkscape:radius="2.8627203"
       inkscape:original="M -81.298828 150.28906 L -483.88477 151.2793 L -484.38281 874.59766 L -80.796875 875.0918 L -81.298828 150.28906 z "
       style="fill:#ffffff;fill-opacity:1;fill-rule:evenodd;stroke:none;stroke-width:1px;stroke-linecap:butt;stroke-linejoin:miter;stroke-opacity:1"
       id="path4245"
       d="m -81.306641,147.42578 -402.585939,0.99024 a 2.8630065,2.8630065 0 0 0 -2.85547,2.86132 l -0.49804,723.31836 a 2.8630065,2.8630065 0 0 0 2.85937,2.86524 l 403.585939,0.49414 a 2.8630065,2.8630065 0 0 0 2.867187,-2.86524 l -0.501953,-724.80273 a 2.8630065,2.8630065 0 0 0 -2.871094,-2.86133 z"
       transform="translate(669.69958,-36.008992)" />
  </g>
</svg>
